<svg width="41" height="30" viewBox="0 0 41 30" fill="none" xmlns="http://www.w3.org/2000/svg">
<path d="M2.16064 0.00991879C1.48863 0.113634 0.886861 0.470605 0.487708 1.0023C0.0885542 1.534 -0.0752828 2.19687 0.0322387 2.84509C0.13976 3.49331 0.509833 4.07378 1.06104 4.4588C1.61226 4.84383 2.29946 5.00186 2.97146 4.89815H10.5729L11.029 6.12021L13.1067 12.2305L15.1845 18.3408C15.3872 18.9763 16.2487 19.5628 16.9074 19.5628H34.6442C35.3536 19.5628 36.1645 18.9763 36.3672 18.3408L40.4719 6.12021C40.6746 5.48474 40.3706 4.89815 39.6611 4.89815H17.1608L15.2351 1.37862C15.03 0.974657 14.7133 0.633122 14.3199 0.391629C13.9265 0.150135 13.4716 0.0180504 13.0054 0.00991879L2.87011 0.00991879C2.71839 -0.00330626 2.56575 -0.00330627 2.41403 0.00991879C2.31276 0.00404763 2.21123 0.00404763 2.10997 0.00991879L2.16064 0.00991879ZM18.1744 24.4511C16.7554 24.4511 15.6405 25.5265 15.6405 26.8952C15.6405 28.2639 16.7554 29.3393 18.1744 29.3393C19.5933 29.3393 20.7082 28.2639 20.7082 26.8952C20.7082 25.5265 19.5933 24.4511 18.1744 24.4511ZM33.3773 24.4511C31.9583 24.4511 30.8434 25.5265 30.8434 26.8952C30.8434 28.2639 31.9583 29.3393 33.3773 29.3393C34.7962 29.3393 35.9111 28.2639 35.9111 26.8952C35.9111 25.5265 34.7962 24.4511 33.3773 24.4511Z" fill="black"/>
</svg>
