<svg width="11" height="22" viewBox="0 0 11 22" fill="none" xmlns="http://www.w3.org/2000/svg">
<path d="M7.98298 0.949463C6.51943 0.949463 5.32199 2.09066 5.32199 3.48546C5.32199 4.88025 6.51943 6.02145 7.98298 6.02145C9.44653 6.02145 10.644 4.88025 10.644 3.48546C10.644 2.09066 9.44653 0.949463 7.98298 0.949463ZM3.99149 7.28945C1.78287 7.28945 0 8.98856 0 11.0934H2.66099C2.66099 10.3834 3.24641 9.82544 3.99149 9.82544C4.73657 9.82544 5.32199 10.3834 5.32199 11.0934C5.32199 11.8035 2.66099 15.2525 2.66099 17.4334C2.66099 19.6144 4.44386 21.2374 6.65248 21.2374C8.86111 21.2374 10.644 19.5383 10.644 17.4334H7.98298C7.98298 18.1435 7.39756 18.7014 6.65248 18.7014C5.90741 18.7014 5.32199 18.1435 5.32199 17.4334C5.32199 16.5205 7.98298 12.7672 7.98298 11.0934C7.98298 9.03928 6.20012 7.28945 3.99149 7.28945Z" fill="black"/>
</svg>
